<mxfile host="app.diagrams.net" modified="2021-08-15T14:05:53.510Z" agent="5.0 (Windows NT 10.0; Win64; x64) AppleWebKit/537.36 (KHTML, like Gecko) Chrome/92.0.4515.131 Safari/537.36 Edg/92.0.902.73" etag="k4NXgB4JNTt7ge7ViwtF" version="14.9.6" type="github">
  <diagram id="O6BRgxGransSlSjcaBEx" name="Architecture">
    <mxGraphModel dx="1038" dy="579" grid="1" gridSize="10" guides="1" tooltips="1" connect="1" arrows="1" fold="1" page="1" pageScale="1" pageWidth="850" pageHeight="1100" math="0" shadow="0">
      <root>
        <mxCell id="0" />
        <mxCell id="1" parent="0" />
        <mxCell id="TCUpwIMptyGiTQ_RCvym-11" value="" style="edgeStyle=orthogonalEdgeStyle;rounded=0;orthogonalLoop=1;jettySize=auto;html=1;" parent="1" source="TCUpwIMptyGiTQ_RCvym-1" target="TCUpwIMptyGiTQ_RCvym-3" edge="1">
          <mxGeometry relative="1" as="geometry" />
        </mxCell>
        <mxCell id="TCUpwIMptyGiTQ_RCvym-1" value="" style="aspect=fixed;html=1;points=[];align=center;image;fontSize=12;image=img/lib/mscae/Azure_IoT_Hub.svg;" parent="1" vertex="1">
          <mxGeometry x="370" y="230" width="50" height="50" as="geometry" />
        </mxCell>
        <mxCell id="TCUpwIMptyGiTQ_RCvym-12" value="" style="edgeStyle=orthogonalEdgeStyle;rounded=0;orthogonalLoop=1;jettySize=auto;html=1;" parent="1" source="TCUpwIMptyGiTQ_RCvym-3" target="TCUpwIMptyGiTQ_RCvym-4" edge="1">
          <mxGeometry relative="1" as="geometry" />
        </mxCell>
        <mxCell id="TCUpwIMptyGiTQ_RCvym-13" value="" style="edgeStyle=orthogonalEdgeStyle;rounded=0;orthogonalLoop=1;jettySize=auto;html=1;" parent="1" source="TCUpwIMptyGiTQ_RCvym-3" target="TCUpwIMptyGiTQ_RCvym-7" edge="1">
          <mxGeometry relative="1" as="geometry" />
        </mxCell>
        <mxCell id="TCUpwIMptyGiTQ_RCvym-3" value="" style="aspect=fixed;html=1;points=[];align=center;image;fontSize=12;image=img/lib/mscae/Stream_Analytics.svg;" parent="1" vertex="1">
          <mxGeometry x="480" y="231" width="61.54" height="48" as="geometry" />
        </mxCell>
        <mxCell id="TCUpwIMptyGiTQ_RCvym-26" style="edgeStyle=orthogonalEdgeStyle;rounded=0;orthogonalLoop=1;jettySize=auto;html=1;" parent="1" source="TCUpwIMptyGiTQ_RCvym-4" edge="1">
          <mxGeometry relative="1" as="geometry">
            <mxPoint x="660" y="280" as="targetPoint" />
            <Array as="points">
              <mxPoint x="660" y="345" />
            </Array>
          </mxGeometry>
        </mxCell>
        <mxCell id="TCUpwIMptyGiTQ_RCvym-4" value="" style="aspect=fixed;html=1;points=[];align=center;image;fontSize=12;image=img/lib/mscae/Data_Lake.svg;" parent="1" vertex="1">
          <mxGeometry x="492" y="320" width="38" height="50" as="geometry" />
        </mxCell>
        <mxCell id="TCUpwIMptyGiTQ_RCvym-9" style="edgeStyle=orthogonalEdgeStyle;rounded=0;orthogonalLoop=1;jettySize=auto;html=1;exitX=1;exitY=0.5;exitDx=0;exitDy=0;" parent="1" source="TCUpwIMptyGiTQ_RCvym-5" edge="1">
          <mxGeometry relative="1" as="geometry">
            <mxPoint x="260" y="255" as="targetPoint" />
          </mxGeometry>
        </mxCell>
        <mxCell id="TCUpwIMptyGiTQ_RCvym-5" value="" style="image;html=1;image=img/lib/clip_art/networking/Ip_Camera_128x128.png" parent="1" vertex="1">
          <mxGeometry x="160" y="232.5" width="50" height="45" as="geometry" />
        </mxCell>
        <mxCell id="TCUpwIMptyGiTQ_RCvym-10" value="" style="edgeStyle=orthogonalEdgeStyle;rounded=0;orthogonalLoop=1;jettySize=auto;html=1;" parent="1" source="TCUpwIMptyGiTQ_RCvym-6" target="TCUpwIMptyGiTQ_RCvym-1" edge="1">
          <mxGeometry relative="1" as="geometry" />
        </mxCell>
        <mxCell id="TCUpwIMptyGiTQ_RCvym-6" value="" style="aspect=fixed;html=1;points=[];align=center;image;fontSize=12;image=img/lib/azure2/preview/IoT_Edge.svg;" parent="1" vertex="1">
          <mxGeometry x="265" y="230" width="50.75" height="50" as="geometry" />
        </mxCell>
        <mxCell id="TCUpwIMptyGiTQ_RCvym-14" value="" style="edgeStyle=orthogonalEdgeStyle;rounded=0;orthogonalLoop=1;jettySize=auto;html=1;" parent="1" source="TCUpwIMptyGiTQ_RCvym-7" target="TCUpwIMptyGiTQ_RCvym-8" edge="1">
          <mxGeometry relative="1" as="geometry" />
        </mxCell>
        <mxCell id="TCUpwIMptyGiTQ_RCvym-7" value="" style="shape=image;imageAspect=0;aspect=fixed;verticalLabelPosition=bottom;verticalAlign=top;image=data:image/png,iVBORw0KGgoAAAANSUhEUgAAAlgAAAE7CAYAAAAB7v+1AAAAAXNSR0IArs4c6QAAAARnQU1BAACxjwv8YQUAAAAJcEhZcwAADsMAAA7DAcdvqGQAACDhSURBVHhe7d1NbFzXecbx2XkT1LsK6cLOIoiApIAWMSA3ia04sCMrsjKkgVS7GOhGS20SDWkgVpGFkEVKIAWiBghAIEBDJBsGaAoWSRA6yAdbFwHJoQWqilzKcnhHjj8I27VpWbLO7X3vHMqj4SE5H/eee857/z/g2SSSyBkNPY/ufee8DQAI3vmV+xtT7QuNVvti4xuXDtn/FQAAACOZWj2TpZMVrNRmq9FabTWeu3af/RUAAAAYSGvlWFamlnuKVX82GtMrTfurAQAAsKfWyoNZeZrvK1P7ZbHx7MoR+7sBAABw1905q9XtvgI1WJjPAgAA6LF7zmrUMJ8FAABq7uA5q9HSWl3PCttx+1UAAABqYPg5q9HSai80ptcO268KAACg0LhzVqNmem0m/9oAAACqFDdnNWq2GlMrZ+13AwAAELGy5qxGDfNZAAAgWr7mrEYN81kAACAaVc1ZjZ4LzGcBAIBwVT9nNWLke86+dwAAgGCENmc1epbzxwIAAFCZ0OesRs98/tgAAAC8iW/Oavh0HxvzWQAAwINo56xGDfNZAACgLHrmrEbM6lLjXPuofTYAAADGoHfOatTMNb5x6ZB9dgAAAIZQhzmrUSPPSat9vvHctfvsswUAAHCA2s1ZjZrsOTq3eto+awAAAA61n7MaNcxnAQCAfsxZFRXmswAAqD3mrIpPPp+12mI+CwCAOmLOquxsNKZXmvbZBgAAqjFn5TuLjWdXjthnHwAAqMKcVbVptS8ynwUAgBbMWYWULeazAACIna45q8UsWq7AMZ8FAEB0VM1Z9R3mObV6vNFaXXf/2uiy2JheO2wfGQAACJKmOauD1tFMrZzNft3Wrt8XY6bXZvJbuQAAICD65qwGO7BTHrcMj7v/jNiSlcWsNAIAgADomrNazm9vDkuOQejOaLn+zLiS3/5cPW4fGQAA8ErbnJUUxXHJ4LiWstlqLzCfBQCAL/rOs7pQ6PyRzGzJ7JaW26XMZwEAUCJtc1ZlX6GRGS6Z5XJ97fiyVcgVPgAA0EPTnJXvGaNz7aPZ19WyGmi0GTUAANBD197Aaj8lp+vDAPP5rWIAADAEbXNWoezh27nN6voeI8vHv3v5/S+vvds+cfWDk/bRAQAAJ21zVnJ0ghyhEBqZ/ZIZMPf3HHQ+9q0X08//+rW0uXknneikeU5cubnSvJFyRQsAgF1U3cLKHkcMu/YiW7tz5CevpE9t3LpbrHqTFa47Jy5v/2vzWsonDgEAUDVnddB6mxDlxzqstrLvP9i1O5/8wUvp8UvvOYtVf069fPv9k1dvfdM+OgAAakbfeVaDrbcJlXzvga3dOfSd9fSxF95yFqmD8tTGrc5T1+88YR8dAADK6ZuzWm7IUQha5Gt3Vpccj9NbZM7q6MKr6anrt53laZh85U83//C1v6TxFl8AAA50bvW0qjkrzYdfVvR39ZkfX09PXv3AWZZGjcxnPXn55g+/fi2N59YtAAAHyg+7rPaqSGHpXnkrdr1NqDyu3fnE96+mT7TfdRakonLq5dvbJ//nJifCAwAip2tdS/nrbUJV4rzc/d++lH7hN284C1FZOfnSB6+ceun2I/bRAQAQCW0Lh32vtwlVwZ/4fOjnnULmrEYN81kAgHiomrOqeL1NqOQ5GeNYh0//6JocDuosPb7T3LzzYfa9/AvzWQCAMGmas5KEst4mVDKDNr0243zu9sjH/+ly+qU/vu0sOlXnqy9/+B7zWQCAcGibswp1vU2oBli7I3NW/ettQs3J//3gOvNZAIDqaJuzmmpvRLHeJlTy3Mlz2Pe8fvZnyZ7rbULOV67e/C3zWQAAvzTNWUlBjG29Tah61u4Ms94m1DCfBQDwQ9ucVezrbQIkV32++sqH8/1lJeY8vvLOpVqcewYA8EzdnFVWEjWttwmAXOVpJun5iY7Z7i8osebJy9vpp2Y3dl43fKIUAFAQdXNWytfbVCQrVs2JxHRcJSXGyMyYzI45X0OciQYAGIu2Oau6rLfxqLmZHpnomEVXSYk18mlH+dTjrtdQf+p6qj8AYET6zrNayFe9oDAyZzV5w1zsLycx5/Hld9IHvnfF/RraL3IWGMUdALAndXsDuZVThmZizk50zJarpMQYOVFeTpZ3voYGD/NZAIA++s6z4s2uBJMdczwrVuuukhJjZAfi0YVXXa+f0UOpBwDkdO0NlNuBF7ldU6ynk/TwRGIWXCUl1jz6+zfTQ99Zd7+Gisk8t6UBoI70nWfFepuCNa+l9092zIX+chJznmi/m37i+1ddr5/iwwcrAKBG9O0NZL1NCSY2zRltxy585sfXXa8fD+FoEADQS9uclTwO1tsUrnkjPTbRMcuukhJjZLn0w794Lf3Yt150v478ZrnRWjlmn2oAQPS0zVmx3qZwcuxCVqzmXCUl1jz2wltlz1mNGuazACBq6uasWG9TNI3rbWTBtCyadr+GAgnzWQAQIX17AzvZv/ifsY8OBZncNKdrs94m2GSvbbnCDAAImMY5K/6VXzi73mbJVVJijMxZDbzeJthwdRYAwqRvzoo5lYJpXG9z6vrtXz3wz3963vH6iTXMFwJAENTtDeQk7KLJnNVEkrYmFK23yR7Lupwsbx9iI3/N5K8dx2sqtvAJWQCokL7zrFhvU4J8vU1iNtwlJcaYLdmFaB/evfJb5Kut7mvJ+RqLLMxnAYA/2uasJNNrM8xZFUvjepusXM3I6fL2Ie5N/vEhK5Ncr7Uow3wWAJRL35wV620KJgVEisjuchJzzKIM5tuHODh1t8+z0sh8FgAUSNsbBettSpGvt9E0Z5WYjWaSjv860fUPk638NijzWQAwBm1zVvnwLm8ORdO23iYviUnakuF8+xDHp+/WOv9IAYChaZyz4uPnhcuK1YNZGZl3l5RYY+bkOAn7EIsnR3/IESDu12iM4TY7AAxE3ZwVA7pFkys7kx1zISsjatbbZI9lafLPxt/rRJYuy/Jl52s2wjCfBQB7mF47rGvOKiuJrLcpnLb1NvJY5DHZh+efHA2i5lgH5rMAYDcpI+7/aMaV7m1N1tsUTK7uyFUeZ0mJMmZbrsIVOmc1KnmtylEhrtdzjJHxAgCApaNgsd6mYDKPJHNJ7pISa8y8zI/ZhxiO/Cpye7HvNR1fKFgA0CPmgiUrSmSmBYVRut5mWT7xaB9iuOTTefIpPddrPYZQsACgR5wFi/U2JZCzn7Stt5EzuuzDi0P+Sd5I1+5QsACgR2wFi/U2hcvX23TMorukxJoB19uEKsaz6ChYANAjnoK1mM+qoDAq19skZkEKo32I8YtpmwIFCwB6hF+wODm6BM3EnM1voblKSoxJzMZkxxy3D0+f/Oc08HPqKFgA0CPcgsXZOiWQEpIVq3VnSYkyJay3CZXcGpejSELdtEDBAoAeYRYs1tsUTON6m8kb5mKp621CJUeStNoLjp+bakPBAoAeQRUs1tsUTeasNK63aW6m7MGbWj2eH1Xi/FmqIBQsAOgRRMFa7eS7EFEoOaKA9TY1EMraHQoWAPSosmCx3qYUGtfbNJP0fC3mrEYlP0OyeNn1c+YrFCwA6FFdwWK9TcGUrreZq+Wc1aieXTmS/WxVs3aHggUAPXwXLNbbFE6u7MgVHrnS4y4pMSaS9TahytfueD7WgYIFAD38FSwV623kEEs5Q8oWmvksi1kcxx5I2cn/v0X5tJvMDpVxJUbdehuZGYttvU2o8rU7WenxdawDBQsAevgqWBHPWdmZphl3kRo2Zn2ncNk/fiTyKbpugXN9jRhjtuXTjlGvtwlVd+1O+UPwFCwA6OGrYEXGnhs1W+qn8OTKU5K2hrmyJb9WCprzz4s12tbbhEg2Irh+LosMBQsAelCw7lFdgTFzB5UMdett5Gqe5vU2IaFgAYBnFKxcGAdyZl/bsfZF43obKYv24cEHChYAeEbBknmmZ+RN310GqohZl7kvuaIlt8/cvybO1Ha9TdUoWADgWc0LVveqlbsMkCJjFllvUyEKFgB4VtOCJbfhsjd9VcuPg0xiNuQoCfu0oyoULADwrIYFS25RZeVq2VkISEFhvU1QKFgA4FnNClZ+/IKmBchBhvU2waFgAYBnNSpY8knB7M1f0afxQotZkuF8+3QjJBQsAPCsRgVL2yfygkliOvJJTPs0I0QULADwrCYFayJfdeMoB2SMsN4mGhQsAPCsBgVLlge7CwIZPWZe5tnsU4zQUbAAwDPlBau7FNlVEMhoMetZsTpmn17EgoIFAJ4pL1hypcVdFMhwYb1N1ChYAOCZ4oLF1auiYmaYs4ocBQsAPFNcsPjU4Lgxi7IP0T6diBkFCwA8U1qwZD2LuzSQA8N6G30oWADgmdKCNcEqnBFitiaStMV6G4UoWADgmcKCla/DcRYIsnfMLOttFKNgAYBnCguWXIVxlwiyO6y3qQUKFgB4prFgdcyiu0yQu0lMZ3LTnLZPGbSjYAGAZ8oKVnehs6NQEBuz3UzS88xZ1QwFCwA801awNtNn3MWCZOWK9TZ1RcECAM+UFaysRMy5y0WdY5ZZb1NzFCwA8ExfwVp3l4waJjEdWXRtnxrUGQULADzTV7C2nGWj1pGhfzMjt0/5xGBNUbAAwDNFBUsGt90Fg+yOWZq8YS7KAmfZ2WifQmhFwQIAzxQVLA4YHSNyO7FjZuXoBhY7K0TBAgDPdBWsY87yQEaIWZKrWyx7VoKCBQCeaSpYHNFQThKzIbcTmd+KGAULADyjYJGhYtblk4ncRowMBQsAPNNUsJK06S4FpPiY7Xxmi6tacaBgAYBnuq5gHXGXAVJuuKoVPAoWAHimqGB97S/pIXcBIH6SX9WaoWgFiIIFAJ4pKljC/cZP/MZsyUJpilZAKFgA4Jm2gpWYDfebPvEfKVrmrBwAa/96UBUKFgB4pu4Klllyv9mTypKYjhQt+1eEKlCwAMAzZQVLbk053+RJ9ZHztDbNaftXBZ8oWADgmbKCJccGON/cSThJzIJ8IMH+lcEHChYAeKasYAm5JeV8YycBxWxNJGnL/pWhbBQsAPBMY8HqmFn3mzoJL2aJfYceULAAwDOFBWuyY46738xJmDHbXM0qGQULADxTWLDkWID8Tdv5Zk7CjVlm9U5JKFgA4JnCgiWyN+sZ95s4CTtZMd40Z+xfI4pCwQIAz5QWrO7aHLPlfhMnoWfyhrnIAaUFomABgGdKC5aQwy1db94klpjl5o30QfvXiXFQsADAM8UFK5/F4siGyGO2spJ1zP6VYlQULADwTHHBElzF0hFW7YyJggUAnikvWPYThcuuN20SW8wcc1kjomABgGfKC5bIB94Ts+F+0yZxxSw3r6X3279aDIqCBQCe1aBgieZmeiR7c1ZwNpbZzh7LMzKXJLfNusut5eR6syjlw/17tIWSNTQKFgB4VpOCJbIy0nS/YccSsy2n1NuHsycpH/LrbPmS4qXw0FWzzMLoIVCwAMCzGhUsIStZ3G/YoWewcrWX/ArepjmT/Tmzam6XZo+DYxwGRMECAM9qVrBE98qO4w072IxXrlzsLdOZ6MsWJWswFCwA8KyGBUtMbprTUlycb9pBpfhy1S/6siUlK3sM9uHAhYIFAJ7VtGAJWSycvTmHexBp9r35PmTTlq1Z5/cTdMwWJWsfFCwA8KzGBUvI7aXszTm4T99NdsyFKs98kgFy+R6kuLi+vyDTLaTcLnShYAGAZzUvWEI+dWc/cRdAmTDrcmXNfmuVk5KXn4Yfze1DjnBwomABgGcUrLvyA0llFqmi2ayqr1odxM6trbu+96CSmAX7LWMHBQsAPKNg7WJvG3qaQ5IyZ2Zjmh/qHnUR9q3DyRvmov12IShYAOAZBWtPedGSs6MSs+B6Ex8vZl2KSqyHZeYzWlmJcT+2MMKC6B4ULADwjII1kPx09O4tsrnRrt5kvycravl6G0WD2PknMTtmyf2Yq4+c3m+/1XqjYAGAZxSskcltvawsHZPiJUPyu5OXqWN1GLrOnotnRiueZSff3XjP7Ve5+pb/vdwb3Z8+pGABgGcULBRESkqYV7Ok+A26kzGfiVtUd7WRggUAnlGwULDu+Vmu8hJrzLo8pqgPMqVgAYBnFCyUIPhT8keNHGaamLMhH6fhRMECAM8oWCiJzJ5NdMy8s6jEnsRsyOydfajho2ABgGcULJSse26Wo6SoiFmWIXn7UMNFwQIAzyhY8KD7KUNXQdESMxf0bUMKFgB4RsGCJ80kbWZFpJI1RH6SX80K81OHFCwA8IyCBY/kdlpWRIJeszNWEtMJaVn3XRQsAPCMggXP5LgD1SVLrtJtmjP24YaBggUAnlGwUIH8UNLEbLgLio4EtQuRggUAnlGwUBH9V7KykhXKJwwpWADgGQULFbIzWZoH37eCGHynYAGAZxQsVEwO7HSXEy0x65Uv/KZgAYBnFCwEQPdhpBIzbx9qNShYAOAZBQuByErIjLuc6Igctmofqn8ULADwjIKFgMjtNFc5UZHEdCo77Z2CBQCeUbAQiO6nCh3FRFEqO7qBggUAnlGwEAiZU3KVEl0x21/7S3rIPmR/KFgA4BkFCwGow9Wrj2Jm7MP2h4IFAJ5RsBCArHTMucuIxlRwFYuCBQCeUbBQMRn8ltLhLiNK43tXIQULADyjYKFicnyBs4RoTmIW7MP3g4IFAJ5RsFAxKRvOEqI6Ztvr6e4ULADwjIKFCknJcBcQ/ZEVQfZpKB8FCwA8o2ChQt1lz+4Coj9m1j4N5aNgAYBnFCxUSP8Owv1ituzTUD4KFgB4RsFChbKSUYPDRfeOtzksChYAeEbBQoWygqV39+AAeTpJD9unolwULADwjIKFCsltMlfxqEtkBs0+FeWiYAGAZxQsVMhVOuoUOQPMPhXlomABgGcULFRE1sW4SketkqQt+3SUi4IFAJ5RsFCR5o30QWfpqFEmb5iL9ukoFwULADyjYKEiFCyJmbFPR7koWADgGQULFeEWYRZuEQKAUhQsVMhZOmoUhtwBQCsKFioy2THHXaWjTuGYBgDQioIFz+RwzYnELLgKR90ic2j2aSkXBQsAPKNgwRNZCyND3a6iUdd8/Vp6n316ykXBAgDPKFjwYGLTnKn7qe27kpiOfXrKR8ECAM8oWCiRzBhlxWrZWTBqHzNrn6byUbAAwDMKFkrQPePKzLuLBZE0k7Rpn67yUbAAwDMKFgokM0VZcTiflattV6kgOzHb3uavBAULADyjYKEgk5vmtMwVuQsFuTdm3j5tflCwAMAzChbGNPlnczQrDEvuIkFc8XbA6A4KFgB4RsHCiLqrbsysq0CQ/WK25bmzT6MfFCwA8IyChSHJ7JDs0MuKAscujBRPC557UbAAwDMKFoYgn3ybSMyGuziQA5OYjverV4KCBQCeUbAwANbbFJNmYs7ap9QvChYAeEbBwj5Yb1NgEtPxejRDLwoWAHhGwcIe5GoLc1bFRY6xsE+tfxQsAPCMgoU+rLcpI57PvepHwQIAzyhYsFhvU1bMcmW3BndQsADAMwpW7cmc1WTHXMiKAOttCo/ZkuJqn+rqULAAwDMKVq2x3qbMmG253Wqf6mpRsADAMwpWLbHepvx4X4ezHwoWAHhGwaoVu95mzlUISFEx25V+YtCFggUAnlGwaoH1Np6SmE5zMz1in/ZwULAAwDMKlnqst/EVs1zJGpxBULAAwDMKllr5epuOWXSXgRhjtuTw08mOOR7eYL6Zq/wohv1QsADAMwqWOjrX25gZeVz2Iea3PLtHS7h+rc+YpWA+KbgfChYAeEbBUkXfehuzuN9Mk/x/8mvcv7fMmHW59Wq/jfBRsADAMwqWCvlts+xN310GIkxiNoYpMHI7dPKGuZg9ByUflpoVq5COXxgUBQsAPKNgRU3fepusICVpa9R5pvz26KY5k/05BV7VMktyZVBKnP0y8Xju2n2N1mory7bz57LIULAAoIevgtVaXW9MrR63XxVj0rnexswV/Sk8mY9qJul5KUnur9kfuQoo5czMyZWqYD8VOAj5ect/7hw/j2WEggUAPXwVrJ202guN6bX4rgQERN74da23MUtysrx9eKWTq2N58eqJ/b90kJ8v+Tlz/fyVGQoWAPTwXbB2Mr020zi/cvdTYTiYuvU23UM545tnCpX8PMnPlevnzUcoWADQo6qC1c1WY2rlrP1OsAd9623Mttze7D12AWOaWj3T/Xly/pz5CQULAHpUW7C6YT7LqWe9jaY5q/nmjfRB+xAxrtbKsexnaHnXz1QVoWABQI8QCtZOmM+6S996G7MuR0nYh4dxtVYezH5m5nf9DFUZChYA9AipYO2kxvNZ1R2cWVa6623sw8O45NiFqfYFL8cuDBsKFgD0CLFgdVOr+az82IX8oExXSYk19663wZjOrZ5uTK12HD8rYYSCBQA9wi1Y3dRgPqtu620wpHPto9nPwJLz5yOkULAAoEfoBWsnCuez6r7eBgf4xqVD2Wt/btfPQqihYAFAj1gK1k4UzGfJp+iyMrLgLClRZrz1Nuizs96m6mMXhg0FCwB6xFawuolyPov1NjjQ9Eoze32Xv5i5jFCwAKBHnAWrm4jms/IFxKy3wV6eXTmSvaYXd73GYwoFCwB6xFywdhLwfBbrbbCvqtfbFBkKFgD0kCtArv9YxpiA5rNYb4MDyW3u2Oas9gsFCwD6yNWf2G9PfJRK57Nk0LuZpOelkLiLSoRJzALrbQok/6jJb287X7/xRq6GAwAcYh6w7U8F81l2vY2mOSvW2xRJ1tvI7WzX6zXuLOYzZACAfcT6EfG94mE+i/U22Jfctg51vc142cj/UQYAGEJ+yOHarOM/qnGmhPksmbPStt5GHg9zVgWaWj2TJdz1NqNlK/9HmPxjDAAwoljWdAyWwuazWG+DfeU/N+3lvtdf/Gm1L+b/+AIAFCT0RbPDZIz5LNbbYF+xrbcZPMxZAUBp5JaAplmSIeaznk7Sw/JpOmdJiTJmWz7tyHqbguSzi+3zzFkBAEYnn4aaas/3/Yc43uwzn8V6GxxI09Xdj8KcFQBUprVyLPsPsZY5k13zWay3wb40rLdxhTkrAAhE/kkpLcc6rK5/7vnXv5mVkWV3SYkwUhKzsmj/tjAuKR9SQlyvn7jDnBUABEfBTrVD31lPH3vhLXdJiTKstymUtjPiPgpzVgAQPBkaj+y06o9968X04V+8ljY37zhKSqRhvU2xdK63Yc4KAKLTXSId/NqdIz95JX1q45a7pEQZ1tsUKsJ/MAwU5qwAIGIB31L5xPevpk+033UUlFjDeptCKbjlvUeYswIANQIaCpY5q0d//6ajoMQb1tsUTNOHNj4Kc1YAoFb+sfbq1u4cXXg1PXX9trOkxBnW2xRK17EjO2HOCgBqw/PBjJ/+0bX0xJWbjoISaVhvUyxtB+fuhDkrAKihfD6r3NUiD3zvSvr48jvukhJlWG9TKA+vwYrCnBUA1J78C7vgqwf3f/tS+oXfvOEoKDGH9TaF0rnehjkrAECfguZfPvuzRNuxC6y3KdK59tEq5wBLCnNWAIAD5J/gGv7KwqdmN9InL287CkqkYb1NsfIrpWuzrtdO1GHOCgAwMDmDaKp9YdebiSNy7MKX/vi2u6REGdbbFCrgs9jGDHNWAIAR7XOKttb1Nk8n6WH76DEumUeKYJvAkGHOCgBQkL49cKy3wb6kmMsVnnuLSexhzgoAUI6/+e566/GV/7vlLinxpbl55z3W2xRI63ob5qwAAGV7dPGNv3185Z1LrsISU2Rdj8yPZW+gy/knKDGeqZWz2XPJnBUAAOP4/POv//2T69tbrvIScmTBtCyadryZzucnimM4fbePlYQ5KwBAtR753ZsXTr70wW1XmQkpMjP2mR9fd72ZfpTuieIX8ltd2J/O9TbMWQEAwvHlX779V1/8z7d+der6beMqN1VGPuUon3aUTz063lD3iJwDtsoZWC47R3hoW2/DnBUAIFQyn/VE+92XXUWnijz2wls7c1ajhvmsXiMeQht4mLMCAMThkcU3/uHJy++/4yo9PiInyn/yBy+53kxHTb3ns3Sut2HOCgAQp0eef/2HpzZufdhfgMqKzFnJLkTHm+n4qeN8VncR+Nw9z0P8Yc4KABC/h3/6yl9/8b/e/m1z805p81kyZ/X5X7+W3v/tS6431IJTg/msfL1N+zxzVgAABO5z/3HjoSfW3n3VVZDGyePL76QPfO+K+w213Oicz8rX2zBnBQBAVD73/OvfPHHl/fddZWmYnLhyM/30j6653kx9R8d8lhQQfettmLMCANTLsd+9+dOnNm7dcZWn/XLq+u30oZ93XG+m1SXm+Sy5ZSa3zlyPK94wZwUAqK+/++VrD3zpv99+QWaoXGWqPz3rbQJNZPNZUkK0rbdhzgoAgK6H/r1z4ssvvveGq1RJ9llvE2rCns/Sud6GOSsAAFy+8JvX//ErV29+sFOsBlpvE3bCms+aXjvcaLUXHN9nzGHOCgCAAz137b5H/7D1bw//8rVbw623CTQhzGfJ155em9n1vcUd5qwAABiaukMuK5rP0rjehjkrAADGpG9Ni5/5LPka8rXc30OsYc4KAIBCnVs9rexKTDnzWfJnyp/t/pqxhjkrAABKI7NEMs+kZYVLkfNZOtfbMGcFAIA36q7SjDmfpe/qHnNWAABURuaMdJ3nNNx8lr75NAlzVgAABGFq5Wz2xqzpRPL957PyT1iuzTp+X8xhzgoAgOBoO+vJNZ+Vz1mpW2/DnBUAAMFTd1q5nc+Sqztylcf5ayINc1YAAERGYyHRE+asAACIls5bajGHOSsAANSQ21ByO8r9pk/KD3NWAACopfNYg7DDnBUAADWh8WDO8MKcFQAAtZPPZ6lbLRNCmLMCAKD2dC5HriLMWQEAgD6yokZW1bjLA9kvzFkBAIB9yaGezGcNGuasAADAgLSt3Sk+zFkBAIARqVu7M3aYswIAAAWZWj2eFYt1R+GoT5izAgAAhavv2h3mrAAAQMnqs3aHOSsAAOCZXNWRqzvuchJzmLMCAAAV07R2hzkrAAAQjPjX7jBnBQAAAiVXf6bac33lJeQwZwUAACIR/tod5qwAAECkQly7w5wVAACInqzdmWpfCGA+izkrAACgTHVrd5izAgAAyvlbu8OcFQAAqJmplbN5CXKXo/HCnBUAAKit4tfuMGcFAACQG3/tDnNWAAAATlKSpCy5S5QrzFkBAAAcaNC1O8xZAQAADGnvtTvMWQEAAIzlXPtoY2p1KStWzFkBiECj8f9iWBXVv+Q4wQAAAABJRU5ErkJggg==;" parent="1" vertex="1">
          <mxGeometry x="610" y="233" width="85.71" height="45" as="geometry" />
        </mxCell>
        <mxCell id="TCUpwIMptyGiTQ_RCvym-8" value="" style="pointerEvents=1;shadow=0;dashed=0;html=1;strokeColor=none;labelPosition=center;verticalLabelPosition=bottom;verticalAlign=top;align=center;fillColor=#505050;shape=mxgraph.mscae.oms.dashboard" parent="1" vertex="1">
          <mxGeometry x="750" y="233" width="50" height="45" as="geometry" />
        </mxCell>
        <mxCell id="TCUpwIMptyGiTQ_RCvym-17" value="" style="edgeStyle=orthogonalEdgeStyle;rounded=0;orthogonalLoop=1;jettySize=auto;html=1;" parent="1" target="TCUpwIMptyGiTQ_RCvym-5" edge="1">
          <mxGeometry relative="1" as="geometry">
            <mxPoint x="113.32999999999993" y="255.5" as="sourcePoint" />
          </mxGeometry>
        </mxCell>
        <mxCell id="TCUpwIMptyGiTQ_RCvym-18" value="" style="shape=image;html=1;verticalAlign=top;verticalLabelPosition=bottom;labelBackgroundColor=#ffffff;imageAspect=0;aspect=fixed;image=https://cdn1.iconfinder.com/data/icons/icons-for-a-site-1/64/advantage_eco_friendly-128.png" parent="1" vertex="1">
          <mxGeometry x="60" y="230" width="47.5" height="47.5" as="geometry" />
        </mxCell>
        <mxCell id="TCUpwIMptyGiTQ_RCvym-19" value="Plant" style="text;html=1;strokeColor=none;fillColor=none;align=center;verticalAlign=middle;whiteSpace=wrap;rounded=0;" parent="1" vertex="1">
          <mxGeometry x="60" y="280" width="40" height="20" as="geometry" />
        </mxCell>
        <mxCell id="TCUpwIMptyGiTQ_RCvym-20" value="Camera" style="text;html=1;strokeColor=none;fillColor=none;align=center;verticalAlign=middle;whiteSpace=wrap;rounded=0;" parent="1" vertex="1">
          <mxGeometry x="160" y="280" width="40" height="20" as="geometry" />
        </mxCell>
        <mxCell id="t3VEjUApkFCBFuDepKvn-1" style="edgeStyle=orthogonalEdgeStyle;rounded=0;orthogonalLoop=1;jettySize=auto;html=1;entryX=0.011;entryY=0.668;entryDx=0;entryDy=0;entryPerimeter=0;" edge="1" parent="1" target="TCUpwIMptyGiTQ_RCvym-4">
          <mxGeometry relative="1" as="geometry">
            <mxPoint x="292" y="290" as="sourcePoint" />
            <Array as="points">
              <mxPoint x="292" y="353" />
            </Array>
          </mxGeometry>
        </mxCell>
        <mxCell id="TCUpwIMptyGiTQ_RCvym-21" value="IoT Edge" style="text;html=1;strokeColor=none;fillColor=none;align=center;verticalAlign=middle;whiteSpace=wrap;rounded=0;" parent="1" vertex="1">
          <mxGeometry x="260.75" y="211" width="55" height="20" as="geometry" />
        </mxCell>
        <mxCell id="TCUpwIMptyGiTQ_RCvym-22" value="IoT Hub" style="text;html=1;strokeColor=none;fillColor=none;align=center;verticalAlign=middle;whiteSpace=wrap;rounded=0;" parent="1" vertex="1">
          <mxGeometry x="370" y="280" width="50" height="20" as="geometry" />
        </mxCell>
        <mxCell id="TCUpwIMptyGiTQ_RCvym-23" value="Stream Analytics" style="text;html=1;strokeColor=none;fillColor=none;align=center;verticalAlign=middle;whiteSpace=wrap;rounded=0;" parent="1" vertex="1">
          <mxGeometry x="460.77" y="210" width="100" height="20" as="geometry" />
        </mxCell>
        <mxCell id="TCUpwIMptyGiTQ_RCvym-24" value="Storage" style="text;html=1;strokeColor=none;fillColor=none;align=center;verticalAlign=middle;whiteSpace=wrap;rounded=0;" parent="1" vertex="1">
          <mxGeometry x="490" y="370" width="40" height="20" as="geometry" />
        </mxCell>
        <mxCell id="TCUpwIMptyGiTQ_RCvym-25" value="Synapse Analytics" style="text;html=1;strokeColor=none;fillColor=none;align=center;verticalAlign=middle;whiteSpace=wrap;rounded=0;" parent="1" vertex="1">
          <mxGeometry x="632.86" y="210" width="40" height="20" as="geometry" />
        </mxCell>
        <mxCell id="TCUpwIMptyGiTQ_RCvym-27" value="Dashboard" style="text;html=1;strokeColor=none;fillColor=none;align=center;verticalAlign=middle;whiteSpace=wrap;rounded=0;" parent="1" vertex="1">
          <mxGeometry x="740" y="280" width="70" height="20" as="geometry" />
        </mxCell>
        <mxCell id="t3VEjUApkFCBFuDepKvn-2" value="Images" style="text;html=1;strokeColor=none;fillColor=none;align=center;verticalAlign=middle;whiteSpace=wrap;rounded=0;" vertex="1" parent="1">
          <mxGeometry x="330" y="330" width="60" height="20" as="geometry" />
        </mxCell>
      </root>
    </mxGraphModel>
  </diagram>
</mxfile>
